<?xml version="1.0"?><svg version="1.1" id="圖層_1" xmlns="http://www.w3.org/2000/svg" x="0" y="0" viewBox="0 0 100 100" xml:space="preserve"><path d="M86 77.5H14c-2 0-3.4-1.9-2.7-3.8l17.3-49.3c.4-1.1 1.5-1.9 2.7-1.9h37.4c1.2 0 2.3.8 2.7 1.9l17.3 49.3c.6 1.9-.8 3.8-2.7 3.8z" fill="#333"/><g><path fill="#fff" d="M56.1 25.9l.8 9.2H43.1l.8-9.2z"/><path fill="#fff" d="M57.3 40.6l.7 9.2H42l.7-9.2z"/><path fill="#fff" d="M58.4 55.3l.8 9.1H40.8l.8-9.1z"/><path fill="#fff" d="M59.6 69.9H40.4l-.6 7.6h20.4z"/></g><metadata xmlns:d="https://loading.io/stock/">
<d:name>road</d:name>
<d:tags>highway,milestone,move,portal,roadmap,plan,road,web application</d:tags>
<d:license>by</d:license>
<d:slug>dzl5aa</d:slug>
</metadata></svg>